<svg xmlns="http://www.w3.org/2000/svg" width="87.234" height="30.846" viewBox="0 0 87.234 30.846"><defs><style>.a{fill:none;stroke:#939598;stroke-linecap:round;stroke-linejoin:round;stroke-miterlimit:10;stroke-width:1.5px;}.b{fill:#32bcad;}.c{fill:#939598;}</style></defs><g transform="translate(-5334.653 -2517.062)"><g transform="translate(5370.464 2522.281)"><path class="a" d="M0-112.017v-17.69A5.893,5.893,0,0,1,5.894-135.6l5.223.008a5.885,5.885,0,0,1,5.873,5.885v3.765a5.894,5.894,0,0,1-5.893,5.894H3.716" transform="translate(0 135.6)"/></g><path class="a" d="M0,0H2.266A2.419,2.419,0,0,1,4.684,2.419V15.633" transform="translate(5388.913 2522.278)"/><g transform="translate(5391.893 2517.062)"><path class="b" d="M-5.788-15.053-6.816-16.08a.653.653,0,0,1,0-.923l1.027-1.027a.653.653,0,0,1,.924,0L-3.838-17a.653.653,0,0,1,0,.923l-1.027,1.028a.653.653,0,0,1-.923,0" transform="translate(7.007 18.222)"/></g><g transform="translate(5397.944 2522.266)"><path class="a" d="M0,0H2.247A4.358,4.358,0,0,1,5.328,1.276l5.255,5.255a1.743,1.743,0,0,0,2.465,0L18.285,1.3A4.358,4.358,0,0,1,21.367.019h1.827"/></g><g transform="translate(5397.944 2530.753)"><path class="a" d="M0-33.451H2.247a4.358,4.358,0,0,0,3.082-1.276l5.255-5.255a1.743,1.743,0,0,1,2.465,0l5.236,5.236a4.358,4.358,0,0,0,3.082,1.276h1.827" transform="translate(0 40.494)"/></g><g transform="translate(5340.478 2535.378)"><path class="b" d="M-78.809-27.428a4.2,4.2,0,0,1-2.986-1.236l-4.311-4.311a.819.819,0,0,0-1.133,0l-4.327,4.327a4.2,4.2,0,0,1-2.986,1.236h-.85l5.46,5.46a4.367,4.367,0,0,0,6.175,0l5.476-5.476Z" transform="translate(95.4 33.202)"/></g><g transform="translate(5340.478 2519.165)"><path class="b" d="M-4.034-32.009a4.2,4.2,0,0,1,2.986,1.236l4.327,4.328a.8.8,0,0,0,1.133,0l4.311-4.311a4.2,4.2,0,0,1,2.986-1.236h.519L6.751-37.468a4.367,4.367,0,0,0-6.175,0l-5.46,5.46Z" transform="translate(4.884 38.747)"/></g><g transform="translate(5334.653 2527.126)"><path class="b" d="M-130.45-15.78l-3.309-3.309a.63.63,0,0,1-.235.047h-1.5a2.973,2.973,0,0,0-2.089.865l-4.311,4.311a2.063,2.063,0,0,1-1.463.605,2.064,2.064,0,0,1-1.463-.6l-4.327-4.327a2.973,2.973,0,0,0-2.089-.865h-1.85a.628.628,0,0,1-.222-.045l-3.322,3.322a4.367,4.367,0,0,0,0,6.175l3.322,3.322a.628.628,0,0,1,.222-.045h1.85a2.973,2.973,0,0,0,2.089-.865l4.327-4.327a2.119,2.119,0,0,1,2.927,0l4.311,4.311a2.973,2.973,0,0,0,2.089.865h1.5a.63.63,0,0,1,.235.047L-130.45-9.6a4.367,4.367,0,0,0,0-6.175" transform="translate(157.913 19.102)"/></g><g transform="translate(5373.964 2544.187)"><path class="c" d="M-4.711-.822a3.828,3.828,0,0,0-.81.123V.38a1.874,1.874,0,0,0,.63.105c.54,0,.8-.182.8-.658,0-.448-.21-.648-.618-.648m-.992,2V-.952h.148l.016.093A4.236,4.236,0,0,1-4.7-.995a.838.838,0,0,1,.553.16A.814.814,0,0,1-3.9-.173a.741.741,0,0,1-.346.686,1.336,1.336,0,0,1-.627.139,2.259,2.259,0,0,1-.649-.1V1.18Z" transform="translate(5.703 0.995)"/></g><g transform="translate(5376.149 2544.187)"><path class="c" d="M-4.637-.791c-.541,0-.782.17-.782.646,0,.46.238.667.782.667s.779-.167.779-.643c0-.46-.238-.67-.779-.67m.7,1.313a1.171,1.171,0,0,1-.7.167,1.188,1.188,0,0,1-.7-.167.746.746,0,0,1-.278-.655.76.76,0,0,1,.278-.658,1.187,1.187,0,0,1,.7-.167,1.187,1.187,0,0,1,.7.167.749.749,0,0,1,.278.655.752.752,0,0,1-.278.658" transform="translate(5.614 0.958)"/></g><g transform="translate(5378.365 2544.23)"><path class="c" d="M-9.568-7.411l-.6-1.294h-.012l-.593,1.294h-.164l-.643-1.56h.2l.535,1.31h.012l.581-1.31h.167l.6,1.31h.013l.522-1.31h.195L-9.4-7.411Z" transform="translate(11.582 8.971)"/></g><g transform="translate(5381.452 2544.187)"><path class="c" d="M-4.27-.777c-.5,0-.67.222-.7.544h1.4c-.015-.355-.2-.544-.7-.544M-4.276.706A.94.94,0,0,1-4.925.533a.808.808,0,0,1-.244-.648.813.813,0,0,1,.291-.667A1.045,1.045,0,0,1-4.27-.941a1.093,1.093,0,0,1,.624.151.792.792,0,0,1,.269.72h-1.6c.006.321.111.606.717.606a4.68,4.68,0,0,0,.807-.09V.61a4.768,4.768,0,0,1-.822.1" transform="translate(5.169 0.941)"/></g><g transform="translate(5383.768 2544.187)"><path class="c" d="M0-7.616v-1.56H.148l.016.093a2.748,2.748,0,0,1,.775-.136H.961v.173H.918a2.549,2.549,0,0,0-.735.123v1.307Z" transform="translate(0 9.219)"/></g><g transform="translate(5384.888 2544.187)"><path class="c" d="M-4.27-.777c-.5,0-.67.222-.7.544h1.4c-.015-.355-.2-.544-.7-.544M-4.276.706A.94.94,0,0,1-4.925.533a.808.808,0,0,1-.244-.648.813.813,0,0,1,.291-.667A1.045,1.045,0,0,1-4.27-.941a1.093,1.093,0,0,1,.624.151.792.792,0,0,1,.269.72h-1.6c.006.321.111.606.717.606a4.68,4.68,0,0,0,.807-.09V.61a4.768,4.768,0,0,1-.822.1" transform="translate(5.169 0.941)"/></g><g transform="translate(5387.055 2543.572)"><path class="c" d="M-7.7-4.212a1.869,1.869,0,0,0-.63-.105c-.541,0-.8.183-.8.658,0,.451.21.648.618.648a4.014,4.014,0,0,0,.81-.12Zm.034,1.331-.016-.093a4.244,4.244,0,0,1-.843.136A.822.822,0,0,1-9.082-3a.814.814,0,0,1-.244-.661.734.734,0,0,1,.346-.683,1.306,1.306,0,0,1,.63-.142,2.363,2.363,0,0,1,.646.1V-5.1h.182v2.218Z" transform="translate(9.326 5.099)"/></g><g transform="translate(5390.54 2543.572)"><path class="c" d="M-4.711-3.742a3.828,3.828,0,0,0-.81.123v1.075a1.814,1.814,0,0,0,.63.108c.54,0,.8-.182.8-.658,0-.448-.21-.648-.618-.648m.466,1.334a1.335,1.335,0,0,1-.627.139,2.221,2.221,0,0,1-.7-.117l-.009.074H-5.7V-4.53h.182v.744a4.418,4.418,0,0,1,.825-.13.838.838,0,0,1,.553.16.814.814,0,0,1,.244.661.741.741,0,0,1-.346.686" transform="translate(5.703 4.53)"/></g><g transform="translate(5392.549 2544.23)"><path class="c" d="M-.175-10.257v-.17c.09.009.173.016.232.016a.473.473,0,0,0,.488-.322L.6-10.856l-.815-1.56H0l.7,1.347H.708l.664-1.347H1.58L.7-10.664a.636.636,0,0,1-.652.423,1.892,1.892,0,0,1-.225-.016" transform="translate(0.212 12.416)"/></g><g transform="translate(5395.775 2543.674)"><path class="c" d="M-5.122-5.825h-.606v.547h.608c.417,0,.575-.047.575-.275,0-.244-.216-.272-.578-.272m-.111-.887h-.494v.556h.5c.411,0,.575-.049.575-.281,0-.247-.207-.275-.578-.275m.939,1.628a1.8,1.8,0,0,1-.983.148H-6.2V-7.052h.9a1.72,1.72,0,0,1,.9.136.448.448,0,0,1,.216.42.462.462,0,0,1-.334.47v.012c.272.062.448.2.448.5a.457.457,0,0,1-.225.429" transform="translate(6.2 7.052)"/></g><g transform="translate(5398.343 2544.187)"><path class="c" d="M-6.706-4.505c-.182-.016-.368-.025-.562-.025-.318,0-.429.065-.429.21s.093.21.337.21A3.2,3.2,0,0,0-6.706-4.2Zm.093.655-.012-.093a3.762,3.762,0,0,1-.847.136.809.809,0,0,1-.473-.115A.442.442,0,0,1-8.118-4.3a.439.439,0,0,1,.263-.423A1.432,1.432,0,0,1-7.272-4.8c.164,0,.383.009.565.022v-.028c0-.244-.161-.324-.6-.324-.17,0-.377.009-.575.028v-.315c.219-.018.466-.031.67-.031a1.32,1.32,0,0,1,.726.145.576.576,0,0,1,.213.535v.924Z" transform="translate(8.118 5.454)"/></g><g transform="translate(5400.751 2544.187)"><path class="c" d="M-7.014-7.616v-.862c0-.284-.145-.386-.4-.386a2.942,2.942,0,0,0-.636.1v1.149h-.436v-1.56h.355l.015.1a3.623,3.623,0,0,1,.834-.142.769.769,0,0,1,.534.16.606.606,0,0,1,.17.488v.955Z" transform="translate(8.491 9.219)"/></g><g transform="translate(5403.063 2544.187)"><path class="c" d="M-3.933-7.821a.883.883,0,0,1-.581-.164.8.8,0,0,1-.247-.661.759.759,0,0,1,.318-.667,1.235,1.235,0,0,1,.686-.155c.179,0,.355.012.55.031V-9.1c-.158-.015-.346-.028-.5-.028-.414,0-.609.13-.609.488,0,.337.145.482.485.482a3.687,3.687,0,0,0,.655-.08v.321a3.927,3.927,0,0,1-.76.1" transform="translate(4.761 9.468)"/></g><g transform="translate(5404.893 2544.187)"><path class="c" d="M-4.96-1.554c-.414,0-.6.13-.6.485s.179.507.6.507.59-.127.59-.482-.176-.51-.59-.51M-4.213-.4a1.313,1.313,0,0,1-.748.164A1.331,1.331,0,0,1-5.711-.4.728.728,0,0,1-6-1.056a.733.733,0,0,1,.294-.661,1.33,1.33,0,0,1,.751-.164,1.331,1.331,0,0,1,.748.164.729.729,0,0,1,.291.658A.738.738,0,0,1-4.213-.4" transform="translate(6.005 1.881)"/></g><g transform="translate(5408.4 2543.631)"><path class="c" d="M-5.179-10.462a1.174,1.174,0,0,1-.76-.219,1.09,1.09,0,0,1-.33-.884,1.037,1.037,0,0,1,.429-.9,1.623,1.623,0,0,1,.9-.2c.235,0,.476.015.739.037v.38c-.226-.019-.5-.034-.72-.034-.6,0-.859.229-.859.717s.238.72.683.72a4.833,4.833,0,0,0,.942-.127v.377a5.252,5.252,0,0,1-1.02.133" transform="translate(6.27 12.665)"/></g><g transform="translate(5410.814 2544.187)"><path class="c" d="M-4.637-1.32c-.361,0-.5.13-.528.368h1.051c-.012-.253-.161-.368-.522-.368M-4.7.048a1.008,1.008,0,0,1-.661-.173.8.8,0,0,1-.25-.652.791.791,0,0,1,.294-.658A1.158,1.158,0,0,1-4.637-1.6a1.2,1.2,0,0,1,.676.157c.25.176.272.448.275.769H-5.169c.009.238.136.392.575.392a5.6,5.6,0,0,0,.831-.08v.306a5.882,5.882,0,0,1-.939.1" transform="translate(5.614 1.598)"/></g><g transform="translate(5413.203 2544.187)"><path class="c" d="M-7.014-7.616v-.862c0-.284-.145-.386-.4-.386a2.942,2.942,0,0,0-.636.1v1.149h-.436v-1.56h.355l.015.1a3.62,3.62,0,0,1,.834-.142.769.769,0,0,1,.534.16.605.605,0,0,1,.17.488v.955Z" transform="translate(8.491 9.219)"/></g><g transform="translate(5415.416 2543.758)"><path class="c" d="M-4.447-9.861a.566.566,0,0,1-.507-.223.809.809,0,0,1-.114-.473v-.584h-.315v-.324h.315l.047-.473h.386v.473h.615v.324h-.615v.5a.744.744,0,0,0,.043.3.277.277,0,0,0,.284.145A1.973,1.973,0,0,0-4-10.229v.312a2.449,2.449,0,0,1-.451.056" transform="translate(5.383 11.937)"/></g><g transform="translate(5417.203 2544.187)"><path class="c" d="M0-7.616v-1.56H.355l.016.1a2.714,2.714,0,0,1,.772-.142.455.455,0,0,1,.056,0v.371c-.049,0-.108,0-.151,0a2.44,2.44,0,0,0-.612.08v1.152Z" transform="translate(0 9.219)"/></g><g transform="translate(5418.574 2544.187)"><path class="c" d="M-6.706-4.505c-.182-.016-.368-.025-.562-.025-.318,0-.429.065-.429.21s.093.21.337.21A3.2,3.2,0,0,0-6.706-4.2Zm.093.655-.012-.093a3.765,3.765,0,0,1-.847.136.809.809,0,0,1-.473-.115A.442.442,0,0,1-8.118-4.3a.439.439,0,0,1,.263-.423A1.432,1.432,0,0,1-7.272-4.8c.164,0,.383.009.565.022v-.028c0-.244-.161-.324-.6-.324-.17,0-.377.009-.575.028v-.315c.219-.018.467-.031.671-.031a1.321,1.321,0,0,1,.726.145.576.576,0,0,1,.213.535v.924Z" transform="translate(8.118 5.454)"/></g><path class="c" d="M976.032-488.01h.435v2.218h-.435Z" transform="translate(4444.95 3031.582)"/></g></svg>